<svg width="257" height="62" viewBox="0 0 257 62" fill="none" xmlns="http://www.w3.org/2000/svg">
<path fill-rule="evenodd" clip-rule="evenodd" d="M15.2374 8.86307C13.2618 9.84793 11.8517 12.5036 11.6346 15.6483C11.4997 17.6002 11.6745 18.9288 12.3742 21.2691C13.1173 23.7551 13.8066 25.0456 15.3032 26.7523C16.1165 27.6797 16.5041 28.0004 17.517 28.5841C19.2421 29.5778 20.057 29.717 21.6528 29.2902C22.7505 28.9966 22.9141 28.9159 23.563 28.3497C27.248 25.1338 26.9857 16.8846 23.0364 11.7924C20.723 8.80954 17.6556 7.65744 15.2374 8.86307ZM30.8125 4.73096C28.601 5.97366 27.2703 8.95503 27.3094 12.579C27.3502 16.3431 28.7796 20.1449 31.1054 22.6753C33.1697 24.9211 35.5391 25.7611 37.7252 25.0218C40.3739 24.1261 41.9639 20.8881 41.8919 16.5366C41.8658 14.96 41.1809 12.0408 40.4698 10.4747C38.8619 6.93386 36.1598 4.49256 33.5291 4.20397C32.6755 4.11036 31.5171 4.33509 30.8125 4.73096ZM7.42723 27.2869C6.1237 27.8748 5.26167 29.3036 5.18407 31.0045C5.125 32.3011 5.73646 34.6699 6.4661 35.9702C8.76661 40.0698 13.1879 42.7497 16.3249 41.9459C17.4047 41.6691 17.926 41.3313 18.5465 40.5061C19.4542 39.299 19.6156 37.5826 19.0255 35.4159C17.5078 29.8443 11.3406 25.5218 7.42723 27.2869ZM47.0632 16.7119C45.4902 17.5285 44.0503 19.3058 43.2387 21.432C42.295 23.9041 42.0998 26.2425 42.6272 28.7588C43.2355 31.6625 44.9827 33.5127 47.1664 33.5659C48.027 33.5868 48.4595 33.4702 49.3143 32.9872C52.6068 31.1271 54.5383 25.8125 53.6137 21.158C52.8274 17.1993 49.922 15.2274 47.0632 16.7119ZM29.3187 32.1896C27.2691 33.2037 26.3571 34.0708 25.1078 36.1929C23.5659 38.8119 22.2065 42.1522 20.7421 46.9197C19.3499 51.4524 19.1372 53.066 19.7157 54.7072C20.5882 57.1831 22.6486 58.3849 25.5676 58.1208C26.9698 57.9939 28.885 57.3897 29.8883 56.7578C30.5278 56.355 30.9091 56.0398 32.775 54.3728C33.7805 53.4743 34.838 52.9977 37.274 52.345C39.8927 51.6433 40.824 51.6022 42.9568 52.0939C45.0578 52.5782 46.1965 52.6283 47.7489 52.3045C50.8733 51.6529 53.0444 49.9789 53.5147 47.8586C53.8065 46.5437 53.4399 44.7551 52.6294 43.5392C50.6879 40.6261 41.1553 32.7315 38.0682 31.48C36.2909 30.7596 33.9868 30.7339 31.5415 31.4073C30.7455 31.6266 29.7453 31.9786 29.3187 32.1896Z" fill="#D96C06"/>
<path d="M74.1318 32.4424H70.4798V30.6394H74.1318C74.8209 30.6394 75.3759 30.5016 75.797 30.2259C76.2258 29.9503 76.5359 29.5675 76.7273 29.0775C76.9263 28.5875 77.0259 28.0286 77.0259 27.4008C77.0259 26.8266 76.9263 26.2868 76.7273 25.7815C76.5359 25.2762 76.2258 24.8704 75.797 24.5641C75.3759 24.2502 74.8209 24.0933 74.1318 24.0933H70.9162V39H68.803V22.2787H74.1318C75.2113 22.2787 76.1224 22.497 76.8651 22.9334C77.6077 23.3698 78.1705 23.9746 78.5533 24.7479C78.9438 25.5135 79.139 26.3902 79.139 27.3778C79.139 28.4497 78.9438 29.3646 78.5533 30.1226C78.1705 30.8805 77.6077 31.4586 76.8651 31.8567C76.1224 32.2472 75.2113 32.4424 74.1318 32.4424ZM83.7557 26.5739V39H81.7345V26.5739H83.7557ZM81.6196 23.2779C81.6196 22.9334 81.7153 22.6424 81.9067 22.4051C82.0981 22.1677 82.3852 22.0491 82.768 22.0491C83.1509 22.0491 83.438 22.1677 83.6294 22.4051C83.8284 22.6424 83.928 22.9334 83.928 23.2779C83.928 23.6071 83.8284 23.8904 83.6294 24.1277C83.438 24.3574 83.1509 24.4723 82.768 24.4723C82.3852 24.4723 82.0981 24.3574 81.9067 24.1277C81.7153 23.8904 81.6196 23.6071 81.6196 23.2779ZM91.278 37.4955C91.6838 37.4955 92.0513 37.4152 92.3805 37.2544C92.7173 37.0859 92.993 36.8256 93.2073 36.4734C93.4217 36.1136 93.5442 35.6466 93.5748 35.0723H95.4813C95.4506 35.8992 95.2401 36.6266 94.8496 37.2544C94.4668 37.8745 93.9615 38.3607 93.3337 38.7129C92.7135 39.0574 92.0283 39.2297 91.278 39.2297C90.4741 39.2297 89.7735 39.0995 89.1763 38.8392C88.5868 38.5789 88.0968 38.2037 87.7063 37.7137C87.3235 37.2161 87.0364 36.6151 86.845 35.9107C86.6536 35.1987 86.5579 34.3909 86.5579 33.4875V32.0864C86.5579 31.183 86.6536 30.3791 86.845 29.6747C87.0364 28.9627 87.3235 28.3616 87.7063 27.8716C88.0968 27.374 88.5868 26.995 89.1763 26.7347C89.7735 26.4744 90.4741 26.3442 91.278 26.3442C92.1202 26.3442 92.8475 26.5241 93.46 26.884C94.0802 27.2362 94.5625 27.7491 94.907 28.4229C95.2592 29.089 95.4506 29.8967 95.4813 30.8461H93.5748C93.5442 30.2336 93.4332 29.7245 93.2418 29.3187C93.0504 28.9052 92.7901 28.599 92.4609 28.3999C92.1316 28.1932 91.7373 28.0898 91.278 28.0898C90.742 28.0898 90.298 28.1855 89.9458 28.377C89.6013 28.5607 89.3295 28.8287 89.1304 29.1809C88.9313 29.533 88.7897 29.9541 88.7055 30.4441C88.6289 30.9341 88.5906 31.4816 88.5906 32.0864V33.4875C88.5906 34.0923 88.6289 34.6436 88.7055 35.1412C88.7897 35.6312 88.9275 36.0523 89.1189 36.4045C89.318 36.7567 89.5936 37.0285 89.9458 37.2199C90.298 37.4037 90.742 37.4955 91.278 37.4955ZM102.372 26.5739V28.2047H96.5723V26.5739H102.372ZM98.4672 23.5535H100.5V35.9222C100.5 36.3433 100.55 36.661 100.649 36.8754C100.756 37.0898 100.89 37.2314 101.051 37.3003C101.212 37.3692 101.384 37.4037 101.568 37.4037C101.706 37.4037 101.859 37.3884 102.027 37.3577C102.196 37.3195 102.311 37.2888 102.372 37.2659L102.36 39C102.223 39.0536 102.039 39.1034 101.809 39.1493C101.579 39.2029 101.289 39.2297 100.936 39.2297C100.5 39.2297 100.094 39.1263 99.719 38.9196C99.3438 38.7129 99.0414 38.3684 98.8117 37.886C98.582 37.396 98.4672 36.7376 98.4672 35.9107V23.5535ZM111.077 36.1289V26.5739H113.11V39H111.18L111.077 36.1289ZM111.456 33.5105L112.26 33.4875C112.26 34.3144 112.187 35.08 112.042 35.7844C111.904 36.4811 111.674 37.0859 111.353 37.5989C111.039 38.1119 110.621 38.5138 110.101 38.8048C109.58 39.088 108.941 39.2297 108.183 39.2297C107.67 39.2297 107.203 39.1416 106.782 38.9655C106.368 38.7895 106.009 38.5177 105.702 38.1502C105.404 37.7827 105.17 37.3041 105.002 36.7146C104.841 36.1251 104.761 35.4169 104.761 34.59V26.5739H106.782V34.613C106.782 35.1719 106.832 35.6351 106.931 36.0026C107.031 36.3624 107.165 36.6495 107.333 36.8639C107.502 37.0706 107.689 37.2161 107.896 37.3003C108.103 37.3845 108.313 37.4266 108.528 37.4266C109.247 37.4266 109.821 37.2544 110.25 36.9098C110.679 36.5577 110.985 36.0868 111.169 35.4973C111.36 34.9001 111.456 34.2378 111.456 33.5105ZM118.197 28.5262V39H116.165V26.5739H118.128L118.197 28.5262ZM121.287 26.505L121.298 28.4803C121.13 28.442 120.977 28.4191 120.839 28.4114C120.709 28.3961 120.555 28.3884 120.379 28.3884C119.997 28.3884 119.66 28.465 119.369 28.6181C119.085 28.7712 118.84 28.9856 118.634 29.2612C118.427 29.5369 118.262 29.8661 118.14 30.2489C118.017 30.6241 117.933 31.0375 117.887 31.4892L117.359 31.8337C117.359 31.0834 117.416 30.3791 117.531 29.7206C117.654 29.0622 117.841 28.4803 118.094 27.975C118.347 27.462 118.668 27.0639 119.059 26.7806C119.457 26.4897 119.931 26.3442 120.483 26.3442C120.605 26.3442 120.755 26.3634 120.931 26.4016C121.114 26.4323 121.233 26.4667 121.287 26.505ZM127.546 39.2297C126.803 39.2297 126.133 39.1187 125.536 38.8966C124.939 38.6746 124.43 38.3377 124.008 37.886C123.587 37.4266 123.266 36.8486 123.044 36.1519C122.822 35.4552 122.711 34.6321 122.711 33.6827V32.2816C122.711 31.1868 122.837 30.2604 123.09 29.5024C123.35 28.7445 123.698 28.1358 124.135 27.6764C124.571 27.2094 125.065 26.8725 125.616 26.6658C126.167 26.4514 126.734 26.3442 127.316 26.3442C128.097 26.3442 128.763 26.4705 129.314 26.7232C129.865 26.9759 130.313 27.351 130.658 27.8487C131.002 28.3463 131.255 28.9588 131.416 29.6862C131.584 30.4135 131.669 31.2519 131.669 32.2012V33.3841H123.905V31.65H129.636V31.3629C129.605 30.7198 129.517 30.1532 129.372 29.6632C129.234 29.1732 129.004 28.7904 128.683 28.5148C128.361 28.2315 127.905 28.0898 127.316 28.0898C126.941 28.0898 126.592 28.1549 126.271 28.2851C125.957 28.4076 125.685 28.6258 125.455 28.9397C125.233 29.2459 125.057 29.6709 124.927 30.2145C124.805 30.758 124.743 31.4471 124.743 32.2816V33.6827C124.743 34.3488 124.805 34.923 124.927 35.4054C125.057 35.8801 125.245 36.2744 125.49 36.5883C125.743 36.8945 126.049 37.1242 126.409 37.2773C126.776 37.4228 127.193 37.4955 127.66 37.4955C128.342 37.4955 128.905 37.3654 129.349 37.1051C129.793 36.8371 130.179 36.4964 130.509 36.083L131.577 37.3577C131.355 37.6716 131.064 37.9741 130.704 38.265C130.352 38.5483 129.915 38.7818 129.395 38.9655C128.882 39.1416 128.265 39.2297 127.546 39.2297ZM140.155 35.8188C140.155 35.5049 140.079 35.2293 139.926 34.992C139.773 34.7546 139.52 34.5249 139.168 34.3029C138.823 34.0809 138.356 33.8435 137.767 33.5909C137.193 33.3535 136.676 33.12 136.216 32.8903C135.765 32.653 135.382 32.3965 135.068 32.1209C134.754 31.8452 134.513 31.5275 134.344 31.1677C134.184 30.8002 134.103 30.3676 134.103 29.8699C134.103 29.3723 134.195 28.9129 134.379 28.4918C134.57 28.063 134.838 27.6879 135.183 27.3663C135.527 27.0448 135.941 26.7959 136.423 26.6198C136.905 26.4361 137.445 26.3442 138.042 26.3442C138.892 26.3442 139.616 26.5088 140.213 26.838C140.81 27.1673 141.266 27.619 141.58 28.1932C141.901 28.7598 142.062 29.3991 142.062 30.1111H140.041C140.041 29.7666 139.964 29.4412 139.811 29.1349C139.658 28.8287 139.432 28.5798 139.133 28.3884C138.835 28.1894 138.471 28.0898 138.042 28.0898C137.591 28.0898 137.223 28.1702 136.94 28.331C136.657 28.4918 136.45 28.7023 136.32 28.9627C136.197 29.2153 136.136 29.4948 136.136 29.801C136.136 30.0307 136.167 30.2298 136.228 30.3982C136.297 30.559 136.412 30.7121 136.572 30.8576C136.733 30.9954 136.951 31.1409 137.227 31.294C137.51 31.4395 137.87 31.6079 138.306 31.7993C139.149 32.1285 139.857 32.4616 140.431 32.7984C141.005 33.1353 141.442 33.5296 141.74 33.9813C142.039 34.433 142.188 34.992 142.188 35.658C142.188 36.2016 142.089 36.6955 141.89 37.1395C141.698 37.5759 141.423 37.9511 141.063 38.265C140.703 38.5789 140.27 38.8201 139.765 38.9885C139.267 39.1493 138.708 39.2297 138.088 39.2297C137.154 39.2297 136.362 39.0459 135.711 38.6784C135.068 38.3033 134.578 37.8171 134.241 37.2199C133.912 36.6151 133.747 35.9681 133.747 35.2791H135.78C135.803 35.8609 135.933 36.3127 136.17 36.6342C136.415 36.9558 136.71 37.1778 137.055 37.3003C137.399 37.4228 137.744 37.4841 138.088 37.4841C138.54 37.4841 138.919 37.419 139.225 37.2888C139.531 37.151 139.761 36.9558 139.914 36.7031C140.075 36.4505 140.155 36.1557 140.155 35.8188ZM144.428 33.3841V32.2012C144.428 31.2366 144.55 30.3905 144.795 29.6632C145.04 28.9282 145.381 28.3157 145.817 27.8257C146.254 27.3357 146.763 26.9682 147.345 26.7232C147.927 26.4705 148.551 26.3442 149.217 26.3442C149.898 26.3442 150.53 26.4705 151.112 26.7232C151.693 26.9682 152.203 27.3357 152.639 27.8257C153.083 28.3157 153.428 28.9282 153.673 29.6632C153.918 30.3905 154.04 31.2366 154.04 32.2012V33.3841C154.04 34.3488 153.918 35.1987 153.673 35.9337C153.428 36.661 153.087 37.2697 152.65 37.7597C152.214 38.2497 151.705 38.6172 151.123 38.8622C150.541 39.1072 149.913 39.2297 149.24 39.2297C148.566 39.2297 147.938 39.1072 147.356 38.8622C146.774 38.6172 146.261 38.2497 145.817 37.7597C145.381 37.2697 145.04 36.661 144.795 35.9337C144.55 35.1987 144.428 34.3488 144.428 33.3841ZM146.46 32.2012V33.3841C146.46 34.0655 146.529 34.6627 146.667 35.1757C146.805 35.6887 147 36.1174 147.253 36.462C147.505 36.8065 147.8 37.0668 148.137 37.2429C148.474 37.4113 148.841 37.4955 149.24 37.4955C149.699 37.4955 150.101 37.4113 150.445 37.2429C150.798 37.0668 151.089 36.8065 151.318 36.462C151.548 36.1174 151.72 35.6887 151.835 35.1757C151.95 34.6627 152.007 34.0655 152.007 33.3841V32.2012C152.007 31.5198 151.938 30.9265 151.801 30.4212C151.663 29.9082 151.468 29.4795 151.215 29.1349C150.962 28.7827 150.664 28.5224 150.319 28.354C149.982 28.1779 149.615 28.0898 149.217 28.0898C148.826 28.0898 148.463 28.1779 148.126 28.354C147.789 28.5224 147.494 28.7827 147.241 29.1349C146.996 29.4795 146.805 29.9082 146.667 30.4212C146.529 30.9265 146.46 31.5198 146.46 32.2012ZM159.587 39H157.554V25.2647C157.554 24.3689 157.696 23.6148 157.979 23.0023C158.27 22.3821 158.68 21.9151 159.208 21.6012C159.744 21.2796 160.379 21.1188 161.114 21.1188C161.321 21.1188 161.528 21.1341 161.735 21.1648C161.949 21.1954 162.152 21.2413 162.343 21.3026L162.251 23.0367C162.129 22.9984 161.98 22.9716 161.804 22.9563C161.635 22.941 161.474 22.9334 161.321 22.9334C160.954 22.9334 160.64 23.0252 160.379 23.209C160.119 23.3851 159.92 23.6454 159.782 23.9899C159.652 24.3345 159.587 24.7594 159.587 25.2647V39ZM161.7 26.5739V28.2047H155.935V26.5739H161.7ZM168.166 39H165.318L165.341 37.197H168.166C169.169 37.197 169.984 37.0055 170.612 36.6227C171.24 36.2323 171.703 35.658 172.002 34.9001C172.3 34.1345 172.45 33.1889 172.45 32.0634V29.2038C172.45 28.3157 172.365 27.5501 172.197 26.907C172.028 26.2638 171.776 25.7355 171.439 25.3221C171.102 24.9087 170.677 24.6024 170.164 24.4034C169.651 24.1966 169.05 24.0933 168.361 24.0933H165.26V22.2787H168.361C169.303 22.2787 170.153 22.428 170.911 22.7266C171.669 23.0176 172.319 23.4578 172.863 24.0473C173.407 24.6292 173.82 25.3527 174.103 26.2179C174.394 27.083 174.54 28.086 174.54 29.2268V32.0634C174.54 33.2042 174.394 34.2072 174.103 35.0723C173.82 35.9375 173.403 36.661 172.851 37.2429C172.3 37.8248 171.63 38.265 170.842 38.5636C170.061 38.8545 169.169 39 168.166 39ZM166.489 22.2787V39H164.376V22.2787H166.489ZM177.112 33.3841V32.2012C177.112 31.2366 177.235 30.3905 177.48 29.6632C177.725 28.9282 178.065 28.3157 178.502 27.8257C178.938 27.3357 179.447 26.9682 180.029 26.7232C180.611 26.4705 181.235 26.3442 181.901 26.3442C182.583 26.3442 183.214 26.4705 183.796 26.7232C184.378 26.9682 184.887 27.3357 185.324 27.8257C185.768 28.3157 186.112 28.9282 186.357 29.6632C186.602 30.3905 186.725 31.2366 186.725 32.2012V33.3841C186.725 34.3488 186.602 35.1987 186.357 35.9337C186.112 36.661 185.771 37.2697 185.335 37.7597C184.899 38.2497 184.389 38.6172 183.808 38.8622C183.226 39.1072 182.598 39.2297 181.924 39.2297C181.25 39.2297 180.623 39.1072 180.041 38.8622C179.459 38.6172 178.946 38.2497 178.502 37.7597C178.065 37.2697 177.725 36.661 177.48 35.9337C177.235 35.1987 177.112 34.3488 177.112 33.3841ZM179.145 32.2012V33.3841C179.145 34.0655 179.214 34.6627 179.352 35.1757C179.489 35.6887 179.685 36.1174 179.937 36.462C180.19 36.8065 180.485 37.0668 180.822 37.2429C181.159 37.4113 181.526 37.4955 181.924 37.4955C182.384 37.4955 182.785 37.4113 183.13 37.2429C183.482 37.0668 183.773 36.8065 184.003 36.462C184.233 36.1174 184.405 35.6887 184.52 35.1757C184.634 34.6627 184.692 34.0655 184.692 33.3841V32.2012C184.692 31.5198 184.623 30.9265 184.485 30.4212C184.347 29.9082 184.152 29.4795 183.899 29.1349C183.647 28.7827 183.348 28.5224 183.004 28.354C182.667 28.1779 182.299 28.0898 181.901 28.0898C181.511 28.0898 181.147 28.1779 180.81 28.354C180.473 28.5224 180.179 28.7827 179.926 29.1349C179.681 29.4795 179.489 29.9082 179.352 30.4212C179.214 30.9265 179.145 31.5198 179.145 32.2012ZM196.073 26.5739H197.899V39.1034C197.899 40.1982 197.708 41.1016 197.325 41.8137C196.95 42.5257 196.425 43.0502 195.751 43.387C195.078 43.7316 194.3 43.9038 193.42 43.9038C193.106 43.9038 192.712 43.8464 192.237 43.7316C191.762 43.6167 191.288 43.4406 190.813 43.2033C190.338 42.9736 189.948 42.6827 189.642 42.3305L190.48 40.9179C190.916 41.362 191.38 41.6797 191.87 41.8711C192.36 42.0625 192.827 42.1582 193.271 42.1582C193.799 42.1582 194.258 42.0625 194.649 41.8711C195.039 41.6797 195.342 41.3658 195.556 40.9294C195.77 40.5006 195.878 39.9264 195.878 39.2067V29.3072L196.073 26.5739ZM188.93 33.3841V32.2242C188.93 31.1983 189.025 30.3178 189.217 29.5828C189.408 28.8402 189.684 28.2315 190.044 27.7568C190.411 27.2745 190.851 26.9184 191.364 26.6887C191.877 26.4591 192.451 26.3442 193.087 26.3442C193.73 26.3442 194.285 26.4744 194.752 26.7347C195.219 26.995 195.606 27.374 195.912 27.8716C196.226 28.3616 196.471 28.9588 196.647 29.6632C196.831 30.3599 196.957 31.1485 197.026 32.029V33.5794C196.957 34.4522 196.831 35.237 196.647 35.9337C196.471 36.6304 196.222 37.2237 195.901 37.7137C195.587 38.2037 195.196 38.5789 194.729 38.8392C194.262 39.0995 193.707 39.2297 193.064 39.2297C192.436 39.2297 191.87 39.111 191.364 38.8737C190.859 38.6287 190.423 38.265 190.055 37.7827C189.695 37.2927 189.416 36.684 189.217 35.9566C189.025 35.2216 188.93 34.3641 188.93 33.3841ZM190.962 32.2242V33.3841C190.962 34.0732 191.012 34.6742 191.112 35.1872C191.211 35.6925 191.364 36.1136 191.571 36.4505C191.785 36.7797 192.057 37.0247 192.386 37.1855C192.723 37.3462 193.125 37.4266 193.592 37.4266C194.159 37.4266 194.622 37.2888 194.982 37.0132C195.342 36.7376 195.629 36.3739 195.843 35.9222C196.065 35.4628 196.241 34.969 196.371 34.4407V31.1791C196.295 30.7887 196.184 30.4135 196.038 30.0537C195.901 29.6862 195.721 29.3608 195.499 29.0775C195.277 28.7866 195.009 28.5569 194.695 28.3884C194.389 28.22 194.029 28.1358 193.615 28.1358C193.148 28.1358 192.746 28.22 192.409 28.3884C192.073 28.5569 191.797 28.8095 191.583 29.1464C191.368 29.4833 191.211 29.9082 191.112 30.4212C191.012 30.9341 190.962 31.5352 190.962 32.2242ZM206.972 35.8188C206.972 35.5049 206.895 35.2293 206.742 34.992C206.589 34.7546 206.336 34.5249 205.984 34.3029C205.639 34.0809 205.172 33.8435 204.583 33.5909C204.009 33.3535 203.492 33.12 203.032 32.8903C202.581 32.653 202.198 32.3965 201.884 32.1209C201.57 31.8452 201.329 31.5275 201.16 31.1677C201 30.8002 200.919 30.3676 200.919 29.8699C200.919 29.3723 201.011 28.9129 201.195 28.4918C201.386 28.063 201.654 27.6879 201.999 27.3663C202.343 27.0448 202.757 26.7959 203.239 26.6198C203.721 26.4361 204.261 26.3442 204.858 26.3442C205.708 26.3442 206.432 26.5088 207.029 26.838C207.626 27.1673 208.082 27.619 208.396 28.1932C208.717 28.7598 208.878 29.3991 208.878 30.1111H206.857C206.857 29.7666 206.78 29.4412 206.627 29.1349C206.474 28.8287 206.248 28.5798 205.949 28.3884C205.651 28.1894 205.287 28.0898 204.858 28.0898C204.407 28.0898 204.039 28.1702 203.756 28.331C203.473 28.4918 203.266 28.7023 203.136 28.9627C203.013 29.2153 202.952 29.4948 202.952 29.801C202.952 30.0307 202.983 30.2298 203.044 30.3982C203.113 30.559 203.228 30.7121 203.388 30.8576C203.549 30.9954 203.767 31.1409 204.043 31.294C204.326 31.4395 204.686 31.6079 205.123 31.7993C205.965 32.1285 206.673 32.4616 207.247 32.7984C207.821 33.1353 208.258 33.5296 208.556 33.9813C208.855 34.433 209.004 34.992 209.004 35.658C209.004 36.2016 208.905 36.6955 208.706 37.1395C208.514 37.5759 208.239 37.9511 207.879 38.265C207.519 38.5789 207.086 38.8201 206.581 38.9885C206.083 39.1493 205.525 39.2297 204.904 39.2297C203.97 39.2297 203.178 39.0459 202.527 38.6784C201.884 38.3033 201.394 37.8171 201.057 37.2199C200.728 36.6151 200.563 35.9681 200.563 35.2791H202.596C202.619 35.8609 202.749 36.3127 202.986 36.6342C203.231 36.9558 203.526 37.1778 203.871 37.3003C204.215 37.4228 204.56 37.4841 204.904 37.4841C205.356 37.4841 205.735 37.419 206.041 37.2888C206.348 37.151 206.577 36.9558 206.73 36.7031C206.891 36.4505 206.972 36.1557 206.972 35.8188ZM211.795 37.8745C211.795 37.5147 211.906 37.2123 212.128 36.9673C212.358 36.7146 212.687 36.5883 213.116 36.5883C213.544 36.5883 213.87 36.7146 214.092 36.9673C214.322 37.2123 214.436 37.5147 214.436 37.8745C214.436 38.2267 214.322 38.5253 214.092 38.7703C213.87 39.0153 213.544 39.1378 213.116 39.1378C212.687 39.1378 212.358 39.0153 212.128 38.7703C211.906 38.5253 211.795 38.2267 211.795 37.8745ZM222.177 37.4955C222.583 37.4955 222.95 37.4152 223.279 37.2544C223.616 37.0859 223.892 36.8256 224.106 36.4734C224.321 36.1136 224.443 35.6466 224.474 35.0723H226.38C226.35 35.8992 226.139 36.6266 225.749 37.2544C225.366 37.8745 224.86 38.3607 224.233 38.7129C223.612 39.0574 222.927 39.2297 222.177 39.2297C221.373 39.2297 220.672 39.0995 220.075 38.8392C219.486 38.5789 218.996 38.2037 218.605 37.7137C218.222 37.2161 217.935 36.6151 217.744 35.9107C217.553 35.1987 217.457 34.3909 217.457 33.4875V32.0864C217.457 31.183 217.553 30.3791 217.744 29.6747C217.935 28.9627 218.222 28.3616 218.605 27.8716C218.996 27.374 219.486 26.995 220.075 26.7347C220.672 26.4744 221.373 26.3442 222.177 26.3442C223.019 26.3442 223.746 26.5241 224.359 26.884C224.979 27.2362 225.461 27.7491 225.806 28.4229C226.158 29.089 226.35 29.8967 226.38 30.8461H224.474C224.443 30.2336 224.332 29.7245 224.141 29.3187C223.949 28.9052 223.689 28.599 223.36 28.3999C223.031 28.1932 222.636 28.0898 222.177 28.0898C221.641 28.0898 221.197 28.1855 220.845 28.377C220.5 28.5607 220.228 28.8287 220.029 29.1809C219.83 29.533 219.689 29.9541 219.604 30.4441C219.528 30.9341 219.49 31.4816 219.49 32.0864V33.4875C219.49 34.0923 219.528 34.6436 219.604 35.1412C219.689 35.6312 219.826 36.0523 220.018 36.4045C220.217 36.7567 220.493 37.0285 220.845 37.2199C221.197 37.4037 221.641 37.4955 222.177 37.4955ZM228.31 33.3841V32.2012C228.31 31.2366 228.432 30.3905 228.677 29.6632C228.922 28.9282 229.263 28.3157 229.699 27.8257C230.136 27.3357 230.645 26.9682 231.227 26.7232C231.808 26.4705 232.432 26.3442 233.099 26.3442C233.78 26.3442 234.412 26.4705 234.993 26.7232C235.575 26.9682 236.084 27.3357 236.521 27.8257C236.965 28.3157 237.309 28.9282 237.554 29.6632C237.799 30.3905 237.922 31.2366 237.922 32.2012V33.3841C237.922 34.3488 237.799 35.1987 237.554 35.9337C237.309 36.661 236.969 37.2697 236.532 37.7597C236.096 38.2497 235.587 38.6172 235.005 38.8622C234.423 39.1072 233.795 39.2297 233.121 39.2297C232.448 39.2297 231.82 39.1072 231.238 38.8622C230.656 38.6172 230.143 38.2497 229.699 37.7597C229.263 37.2697 228.922 36.661 228.677 35.9337C228.432 35.1987 228.31 34.3488 228.31 33.3841ZM230.342 32.2012V33.3841C230.342 34.0655 230.411 34.6627 230.549 35.1757C230.687 35.6887 230.882 36.1174 231.135 36.462C231.387 36.8065 231.682 37.0668 232.019 37.2429C232.356 37.4113 232.723 37.4955 233.121 37.4955C233.581 37.4955 233.983 37.4113 234.327 37.2429C234.68 37.0668 234.97 36.8065 235.2 36.462C235.43 36.1174 235.602 35.6887 235.717 35.1757C235.832 34.6627 235.889 34.0655 235.889 33.3841V32.2012C235.889 31.5198 235.82 30.9265 235.683 30.4212C235.545 29.9082 235.349 29.4795 235.097 29.1349C234.844 28.7827 234.546 28.5224 234.201 28.354C233.864 28.1779 233.497 28.0898 233.099 28.0898C232.708 28.0898 232.344 28.1779 232.008 28.354C231.671 28.5224 231.376 28.7827 231.123 29.1349C230.878 29.4795 230.687 29.9082 230.549 30.4212C230.411 30.9265 230.342 31.5198 230.342 32.2012ZM242.573 29.043V39H240.552V26.5739H242.458L242.573 29.043ZM242.16 32.3161L241.218 32.2816C241.21 31.4318 241.295 30.647 241.471 29.9273C241.647 29.2 241.911 28.5684 242.263 28.0324C242.623 27.4965 243.071 27.083 243.607 26.7921C244.15 26.4935 244.782 26.3442 245.502 26.3442C245.976 26.3442 246.417 26.4284 246.822 26.5969C247.236 26.7577 247.596 27.0141 247.902 27.3663C248.208 27.7185 248.445 28.1702 248.614 28.7215C248.79 29.2727 248.878 29.9388 248.878 30.7198V39H246.845V30.8231C246.845 30.1723 246.757 29.6517 246.581 29.2612C246.413 28.8708 246.172 28.5875 245.858 28.4114C245.544 28.2277 245.169 28.1358 244.732 28.1358C244.235 28.1358 243.817 28.2468 243.48 28.4688C243.151 28.6909 242.887 28.9971 242.688 29.3876C242.497 29.778 242.359 30.2259 242.275 30.7312C242.198 31.2289 242.16 31.7572 242.16 32.3161ZM248.855 31.1447L247.5 31.5811C247.492 30.8997 247.576 30.2451 247.753 29.6173C247.929 28.9895 248.189 28.4305 248.534 27.9405C248.886 27.4505 249.322 27.0639 249.843 26.7806C250.363 26.4897 250.968 26.3442 251.657 26.3442C252.224 26.3442 252.725 26.4323 253.162 26.6084C253.598 26.7845 253.966 27.0562 254.264 27.4237C254.57 27.7836 254.8 28.2468 254.953 28.8134C255.106 29.3799 255.183 30.0537 255.183 30.8346V39H253.15V30.8116C253.15 30.1149 253.062 29.5752 252.886 29.1923C252.718 28.8019 252.476 28.5301 252.163 28.377C251.849 28.2162 251.474 28.1358 251.037 28.1358C250.685 28.1358 250.371 28.2162 250.095 28.377C249.827 28.5377 249.602 28.7598 249.418 29.043C249.234 29.3187 249.092 29.6364 248.993 29.9962C248.901 30.3561 248.855 30.7389 248.855 31.1447Z" fill="#D96C06"/>
</svg>
