<svg width="50" height="54" viewBox="0 0 50 54" fill="none" xmlns="http://www.w3.org/2000/svg">
<path fill-rule="evenodd" clip-rule="evenodd" d="M10.9586 4.69583C8.98301 5.68069 7.57286 8.33639 7.35575 11.481C7.22092 13.4329 7.39572 14.7616 8.09537 17.1019C8.8385 19.5878 9.52781 20.8784 11.0244 22.5851C11.8376 23.5124 12.2253 23.8332 13.2382 24.4168C14.9633 25.4106 15.7782 25.5497 17.374 25.1229C18.4717 24.8294 18.6353 24.7487 19.2842 24.1825C22.9692 20.9665 22.7069 12.7173 18.7576 7.62519C16.4442 4.64231 13.3768 3.49021 10.9586 4.69583ZM26.5337 0.563724C24.3222 1.80643 22.9915 4.7878 23.0306 8.41179C23.0714 12.1759 24.5008 15.9777 26.8266 18.508C28.8909 20.7538 31.2603 21.5938 33.4464 20.8545C36.0951 19.9589 37.6851 16.7209 37.6131 12.3693C37.587 10.7928 36.9021 7.87352 36.191 6.30745C34.5831 2.76662 31.881 0.325328 29.2503 0.0367308C28.3967 -0.0568782 27.2383 0.167852 26.5337 0.563724ZM3.14842 23.1197C1.84489 23.7076 0.982862 25.1363 0.905262 26.8373C0.846194 28.1339 1.45765 30.5026 2.18729 31.803C4.4878 35.9026 8.9091 38.5825 12.0461 37.7786C13.1259 37.5019 13.6472 37.1641 14.2677 36.3388C15.1754 35.1317 15.3368 33.4154 14.7466 31.2487C13.229 25.677 7.06177 21.3545 3.14842 23.1197ZM42.7844 12.5446C41.2114 13.3612 39.7715 15.1385 38.9598 17.2648C38.0162 19.7369 37.821 22.0753 38.3484 24.5916C38.9567 27.4953 40.7039 29.3455 42.8876 29.3986C43.7482 29.4195 44.1807 29.303 45.0355 28.82C48.328 26.9598 50.2595 21.6453 49.3348 16.9908C48.5486 13.0321 45.6432 11.0602 42.7844 12.5446ZM25.0399 28.0224C22.9903 29.0365 22.0783 29.9035 20.829 32.0257C19.2871 34.6447 17.9277 37.985 16.4633 42.7525C15.0711 47.2851 14.8584 48.8987 15.4368 50.54C16.3094 53.0158 18.3698 54.2177 21.2888 53.9536C22.691 53.8267 24.6062 53.2225 25.6095 52.5905C26.249 52.1877 26.6303 51.8726 28.4962 50.2055C29.5017 49.3071 30.5592 48.8305 32.9952 48.1777C35.6139 47.476 36.5452 47.4349 38.678 47.9267C40.779 48.411 41.9177 48.461 43.4701 48.1373C46.5945 47.4856 48.7655 45.8116 49.2359 43.6914C49.5277 42.3765 49.1611 40.5879 48.3506 39.372C46.4091 36.4589 36.8765 28.5643 33.7894 27.3128C32.0121 26.5923 29.708 26.5666 27.2627 27.2401C26.4667 27.4594 25.4665 27.8113 25.0399 28.0224Z" fill="#D96C06"/>
</svg>
